<svg xmlns="http://www.w3.org/2000/svg" width="22" height="22" viewBox="0 0 22 22">
  <path id="linkedin" d="M20.429,32H1.567A1.578,1.578,0,0,0,0,33.586V52.414A1.578,1.578,0,0,0,1.567,54H20.429A1.582,1.582,0,0,0,22,52.414V33.586A1.582,1.582,0,0,0,20.429,32ZM6.649,50.857H3.388v-10.5H6.654v10.5ZM5.019,38.924a1.891,1.891,0,1,1,1.891-1.891A1.891,1.891,0,0,1,5.019,38.924ZM18.872,50.857H15.611V45.75c0-1.218-.025-2.784-1.694-2.784-1.7,0-1.959,1.326-1.959,2.7v5.2H8.7v-10.5h3.128v1.434h.044A3.434,3.434,0,0,1,14.958,40.1c3.3,0,3.914,2.175,3.914,5Z" transform="translate(0 -32)" fill="#fe335f"/>
</svg>
