<svg xmlns="http://www.w3.org/2000/svg" width="22" height="22" viewBox="0 0 22 22">
  <path id="tw" d="M19.643,32H2.357A2.358,2.358,0,0,0,0,34.357V51.643A2.358,2.358,0,0,0,2.357,54H19.643A2.358,2.358,0,0,0,22,51.643V34.357A2.358,2.358,0,0,0,19.643,32Zm-2.4,7.8c.01.138.01.28.01.417a9.1,9.1,0,0,1-9.163,9.163,9.121,9.121,0,0,1-4.945-1.444,6.783,6.783,0,0,0,.776.039,6.457,6.457,0,0,0,4-1.375,3.225,3.225,0,0,1-3.01-2.234,3.471,3.471,0,0,0,1.454-.059,3.221,3.221,0,0,1-2.578-3.162V41.1a3.219,3.219,0,0,0,1.454.408A3.214,3.214,0,0,1,3.8,38.831a3.181,3.181,0,0,1,.437-1.625,9.145,9.145,0,0,0,6.639,3.369,3.228,3.228,0,0,1,5.5-2.942,6.311,6.311,0,0,0,2.043-.776A3.212,3.212,0,0,1,17,38.629a6.409,6.409,0,0,0,1.856-.5A6.779,6.779,0,0,1,17.242,39.8Z" transform="translate(0 -32)" fill="#fe335f"/>
</svg>
