<svg xmlns="http://www.w3.org/2000/svg" width="28.54" height="19.978" viewBox="0 0 28.54 19.978">
  <path id="user" d="M8.562,41.989a4.994,4.994,0,1,0-4.994-4.994A4.992,4.992,0,0,0,8.562,41.989Zm3.425,1.427h-.37a6.9,6.9,0,0,1-6.109,0h-.37A5.139,5.139,0,0,0,0,48.553v1.284a2.141,2.141,0,0,0,2.14,2.14H14.983a2.141,2.141,0,0,0,2.14-2.14V48.553A5.139,5.139,0,0,0,11.987,43.416ZM21.4,41.989a4.281,4.281,0,1,0-4.281-4.281A4.282,4.282,0,0,0,21.4,41.989Zm2.14,1.427h-.169a5.623,5.623,0,0,1-3.942,0h-.169a4.953,4.953,0,0,0-2.484.687,6.526,6.526,0,0,1,1.77,4.45v1.712c0,.1-.022.192-.027.285H26.4a2.141,2.141,0,0,0,2.14-2.14A4.992,4.992,0,0,0,23.545,43.416Z" transform="translate(0 -32)" fill="#00bdd4"/>
</svg>
